# xmcd
#
# Track frame offsets:
#	150
#	18338
#	36976
#	55566
#	76138
#	90820
#	110089
#	127350
#	147505
#	163170
#	178315
#	195636
#	212203
#	228756
#	248499
#	281043
#
# Disc length: 3760 seconds
#
# Revision: 3
# Processed by: cddbd v1.5.2PL0 Copyright (c) Steve Scherf et al.
# Submitted via: audiograbber 1.83.01
#
DISCID=e00eae10
DTITLE=Sound Choice - SC8931
DYEAR=2005
DGENRE=Karaoke
TTITLE0=Toby Keith - As Good As I Once Was
TTITLE1=Carrie Underwood - Inside Your Heaven
TTITLE2=Faith Hill - Mississippi Girl
TTITLE3=Brad Paisley - Alcohol
TTITLE4=Erika Jo - I Break Things
TTITLE5=Van Zant - Help Somebody
TTITLE6=Mindy Smith - One Moment More
TTITLE7=Montgomery Gentry - Something To Be Proud Of
TTITLE8=Brooks and Dunn - Play Something Country
TTITLE9=Keith Anderson - Pickin' Wildflowers
TTITLE10=Kenny Chesney - Keg In The Closet
TTITLE11=Blaine Larson  - The Best Man
TTITLE12=Jeff Bates - Long Slow Kisses
TTITLE13=Josh Gracin - Stay With Me (Brass Bed)
TTITLE14=Trisha Yearwood - Georgia Rain (Radio Version)
TTITLE15=Data - Data Track
EXTD=For Those Who Alphabetise By Last Name
EXTT0=
EXTT1=
EXTT2=
EXTT3=
EXTT4=
EXTT5=
EXTT6=
EXTT7=
EXTT8=
EXTT9=
EXTT10=
EXTT11=
EXTT12=
EXTT13=
EXTT14=
EXTT15=
PLAYORDER=
